<?xml version="1.0" standalone="no"?>
<!DOCTYPE svg PUBLIC "-//W3C//DTD SVG 20010904//EN"
 "http://www.w3.org/TR/2001/REC-SVG-20010904/DTD/svg10.dtd">
<svg version="1.0" xmlns="http://www.w3.org/2000/svg"
 width="924.000000pt" height="924.000000pt" viewBox="0 0 924.000000 924.000000"
 preserveAspectRatio="xMidYMid meet">
<metadata>
Created by potrace 1.14, written by Peter Selinger 2001-2017
</metadata>
<g transform="translate(0.000000,924.000000) scale(0.100000,-0.100000)"
fill="#000000" stroke="none">
<path d="M4338 9025 c-2 -2 -43 -6 -93 -10 -49 -4 -103 -8 -120 -11 -16 -2
-55 -6 -85 -9 -69 -8 -78 -9 -225 -34 -169 -29 -173 -30 -244 -47 -36 -9 -72
-17 -80 -19 -9 -2 -36 -8 -61 -14 -25 -7 -54 -14 -64 -16 -62 -14 -203 -59
-213 -67 -7 -6 -13 -8 -13 -5 0 9 -262 -87 -400 -146 -14 -6 -27 -11 -30 -12
-23 -8 -79 -34 -211 -100 -183 -91 -209 -105 -317 -170 -46 -27 -92 -54 -103
-60 -10 -5 -19 -13 -19 -17 0 -5 -5 -8 -10 -8 -6 0 -39 -20 -74 -45 -36 -25
-69 -45 -74 -45 -6 0 -12 -7 -16 -15 -3 -8 -12 -15 -20 -15 -8 0 -16 -3 -18
-8 -1 -4 -28 -25 -58 -47 -30 -22 -60 -44 -67 -50 -7 -5 -18 -14 -25 -20 -40
-31 -116 -92 -133 -107 -11 -9 -42 -36 -70 -60 -69 -59 -371 -361 -427 -428
-26 -30 -58 -68 -73 -85 -41 -47 -224 -291 -243 -325 -9 -16 -20 -30 -24 -30
-5 0 -8 -5 -8 -10 0 -6 -15 -32 -34 -58 -18 -27 -42 -64 -51 -82 -10 -19 -24
-40 -31 -48 -8 -7 -14 -18 -14 -24 0 -5 -9 -22 -20 -37 -24 -35 -191 -361
-185 -361 3 0 -1 -10 -9 -22 -8 -13 -28 -59 -46 -103 -18 -44 -38 -93 -45
-110 -30 -71 -123 -358 -150 -465 -13 -53 -57 -248 -60 -265 -1 -11 -8 -49
-14 -85 -6 -36 -13 -81 -16 -100 -2 -19 -4 -35 -5 -35 -1 0 -4 -13 -5 -30 -2
-16 -6 -50 -9 -75 -27 -213 -28 -766 -1 -923 3 -17 7 -54 10 -82 2 -27 7 -61
10 -75 3 -14 8 -45 11 -70 3 -25 8 -54 11 -65 2 -11 6 -29 7 -40 10 -55 19
-97 37 -170 12 -44 22 -87 23 -95 1 -8 8 -35 15 -60 7 -25 14 -52 16 -60 2 -9
15 -51 30 -95 15 -44 29 -91 32 -105 2 -13 8 -29 12 -35 5 -5 14 -28 21 -50
25 -76 99 -253 146 -350 14 -27 23 -53 22 -56 -2 -4 4 -15 12 -25 9 -11 33
-55 55 -99 22 -44 43 -82 46 -85 3 -3 8 -12 12 -20 3 -8 20 -37 36 -65 17 -27
38 -63 47 -80 9 -16 22 -33 28 -37 6 -5 7 -8 1 -8 -6 0 -6 -3 0 -8 6 -4 29
-34 51 -67 53 -81 128 -189 135 -195 3 -3 18 -23 34 -45 17 -22 32 -42 35 -45
3 -3 17 -21 32 -42 15 -20 33 -42 40 -50 7 -7 42 -47 78 -88 94 -110 272 -293
347 -357 12 -11 48 -42 80 -71 71 -63 90 -79 139 -117 21 -16 46 -38 56 -48
10 -9 21 -17 24 -17 3 0 11 -6 18 -13 34 -32 273 -197 287 -197 5 0 9 -4 9 -9
0 -5 16 -17 36 -27 20 -11 44 -23 55 -29 10 -5 19 -13 19 -17 0 -5 4 -8 9 -8
5 0 39 -18 75 -40 36 -22 70 -40 75 -40 5 0 14 -7 21 -15 7 -9 15 -13 17 -11
3 2 25 -9 50 -24 25 -16 50 -27 54 -24 5 3 9 1 9 -3 0 -5 19 -18 42 -28 24
-10 84 -38 133 -61 81 -38 305 -132 330 -138 6 -2 17 -6 25 -9 60 -24 309
-102 360 -112 8 -2 15 -4 15 -5 0 -1 7 -3 15 -5 8 -2 71 -17 140 -35 69 -17
139 -32 156 -34 16 -2 39 -6 50 -10 10 -3 37 -8 59 -12 22 -3 51 -7 65 -10 14
-2 41 -6 60 -8 19 -3 35 -5 35 -6 0 -2 59 -10 110 -14 28 -3 50 -5 50 -6 0 -3
33 -6 150 -16 123 -10 639 -10 755 1 47 4 106 8 132 9 27 1 48 3 48 7 0 3 17
6 39 7 21 2 49 5 62 8 13 2 44 7 69 10 25 2 52 6 60 9 8 2 32 7 54 11 21 3 48
8 60 10 11 2 37 7 56 10 19 3 62 13 95 21 33 8 71 17 85 20 53 9 392 109 440
130 8 3 20 7 25 8 15 4 127 45 150 55 11 5 65 28 120 51 55 22 111 47 125 54
14 7 81 41 150 74 69 34 148 75 175 91 28 16 57 32 65 36 31 15 148 89 258
163 63 42 122 81 130 86 9 6 21 15 27 20 7 6 27 21 45 35 226 169 411 336 630
569 57 61 198 231 254 306 37 50 73 97 80 105 11 14 92 138 171 260 16 25 38
61 48 80 10 19 26 46 35 60 15 24 165 316 170 332 1 5 14 34 28 65 14 32 33
76 41 98 8 22 21 54 29 70 14 32 104 299 109 325 2 8 4 15 5 15 2 0 9 30 14
55 2 8 6 22 9 30 7 18 35 132 43 175 3 17 9 46 14 65 5 19 12 52 16 74 3 21 8
48 10 60 12 60 16 84 19 116 2 19 4 35 5 35 1 0 3 18 5 40 2 22 6 58 9 80 28
196 28 693 1 910 -3 22 -7 58 -10 80 -7 58 -15 110 -31 200 -8 44 -17 94 -20
110 -3 17 -14 66 -25 110 -11 44 -22 89 -24 100 -2 11 -15 61 -30 110 -14 50
-28 97 -30 105 -2 8 -4 15 -5 15 -1 0 -3 7 -5 15 -9 37 -72 204 -117 314 -27
67 -54 133 -60 149 -5 15 -14 27 -19 27 -5 0 -9 6 -9 14 0 34 -215 427 -245
448 -5 4 -6 8 -2 8 9 0 -52 93 -65 98 -4 2 -8 8 -8 14 0 6 -11 26 -25 44 -14
19 -25 36 -25 39 0 3 -8 14 -17 24 -10 10 -29 35 -43 56 -14 20 -29 42 -35 48
-5 7 -26 33 -45 57 -19 25 -42 53 -50 63 -37 45 -53 65 -93 112 -50 60 -385
395 -447 448 -25 20 -58 49 -75 63 -23 19 -298 227 -361 271 -21 16 -50 33
-64 40 -8 4 -24 15 -34 25 -11 10 -26 18 -33 18 -7 0 -13 5 -13 11 0 5 -4 8
-9 5 -5 -4 -11 -3 -13 2 -3 7 -85 60 -118 75 -8 4 -46 25 -85 47 -108 61 -415
210 -434 210 -5 0 -22 7 -38 15 -15 8 -44 21 -63 29 -54 21 -104 41 -110 42
-3 0 -12 3 -20 7 -8 3 -37 13 -65 22 -27 10 -57 20 -65 23 -8 3 -17 6 -20 7
-3 1 -13 5 -23 10 -10 4 -26 9 -35 10 -10 1 -24 4 -32 7 -16 6 -131 42 -140
43 -5 1 -78 17 -95 21 -5 1 -39 10 -75 19 -36 9 -76 19 -90 21 -27 5 -60 11
-100 20 -14 3 -37 7 -52 9 -15 2 -53 8 -85 14 -32 6 -78 13 -103 16 -25 3 -63
8 -85 11 -22 3 -61 6 -87 7 -27 1 -48 4 -48 7 0 3 -30 6 -68 8 -97 5 -650 11
-654 7z"/>
</g>
</svg>
