<svg width="462" height="441" viewBox="0 0 462 441" fill="none" xmlns="http://www.w3.org/2000/svg">
<ellipse cx="231" cy="220.5" rx="223" ry="212.5" fill="#323D46" stroke="#FFEA00" stroke-width="16"/>
<path d="M220.142 149.589L135.999 184.921V121.219V78L184.409 82.6432L220.142 149.589ZM107.332 138.318L81 126.92V104.123L97.1763 111.126L107.332 115.521V138.318ZM115.089 109.925C115.084 109.925 115.084 109.925 115.089 109.925L86.1733 97.4059L125.663 80.31V114.502L115.089 109.925ZM152.429 250.599V212.776L179.024 232.263L152.429 250.599ZM372.23 363L190.844 230.089C190.709 229.941 190.647 229.771 190.477 229.635C190.192 229.403 189.831 229.271 189.495 229.1L152.294 201.842L282.919 239.34L372.23 363ZM142.987 190.87L225.951 156.035L381 259.199L142.987 190.87Z" fill="#FFEA00"/>
</svg>
